Patient4_TMGait_0pt8_01_right_13_GRF.mot
version=1
nRows=32
nColumns=19
inDegrees=no
endheader
time	F1x	F1y	F1z	M1x	M1y	M1z	F2x	F2y	F2z	M2x	M2y	M2z	EC1x	EC1y	EC1z	EC2x	EC2y	EC2z
14.35	-0.87586	702.2285	66.8723	-257.5649	-70.1918	753.6584	0.64266	4.9581	-3.4699	2.3678	2.316	-1.7987	-0.0592	0.0182	-0.0073	-0.0462	0.0165	0.9585
14.3611	3.2845	697.2581	63.3111	-255.1788	-64.4182	746.5801	0.25142	4.1686	-2.5776	1.9825	1.8833	-0.08606	-0.0592	0.0182	-0.0073	-0.0462	0.0165	0.9585
14.3723	7.1696	692.4113	60.1455	-252.6123	-59.1022	739.1009	-0.046379	3.495	-1.7688	1.6428	1.4589	1.3256	-0.0592	0.0182	-0.0073	-0.0462	0.0165	0.9585
14.3834	10.5277	688.4497	57.5986	-250.1246	-54.5975	732.1373	-0.2648	3.0013	-1.1225	1.3848	1.1057	2.4092	-0.0592	0.0182	-0.0073	-0.0462	0.0165	0.9585
14.3946	13.3104	686.0354	55.7989	-247.9544	-51.077	726.5004	-0.40198	2.6832	-0.65941	1.213	0.84477	3.1688	-0.0592	0.0182	-0.0073	-0.0462	0.0165	0.9585
14.4057	15.62	685.6191	54.7487	-246.2785	-48.5252	722.7543	-0.50233	2.5349	-0.36608	1.12	0.68444	3.6899	-0.0592	0.0182	-0.0073	-0.0462	0.0165	0.9585
14.4169	17.6211	687.3691	54.4538	-245.1787	-46.8977	721.1333	-0.57519	2.4853	-0.20305	1.0767	0.60322	3.9931	-0.0592	0.0182	-0.0073	-0.0462	0.0165	0.9585
14.428	19.4445	691.1522	54.8916	-244.64	-46.1237	721.5315	-0.65589	2.4783	-0.13679	1.0514	0.59695	4.1326	-0.0592	0.0182	-0.0073	-0.0462	0.0165	0.9585
14.4391	21.2104	696.6456	55.9664	-244.5884	-46.0638	723.6265	-0.74695	2.4054	-0.13627	0.99994	0.65191	4.0444	-0.0592	0.0182	-0.0073	-0.0462	0.0165	0.9585
14.4503	23.0161	703.4558	57.5452	-244.9323	-46.5403	727.0173	-0.87373	2.1849	-0.19842	0.88378	0.77879	3.7086	-0.0592	0.0182	-0.0073	-0.0462	0.0165	0.9585
14.4614	24.9543	711.2425	59.4391	-245.6017	-47.325	731.3224	-1.0056	1.6973	-0.31254	0.65683	0.96585	3.005	-0.0592	0.0182	-0.0073	-0.0462	0.0165	0.9585
14.4726	27.1051	719.7451	61.5318	-246.5495	-48.2614	736.247	-1.1593	0.86338	-0.47114	0.28343	1.2141	1.854	-0.0592	0.0182	-0.0073	-0.0462	0.0165	0.9585
14.4837	29.5157	728.7926	63.7341	-247.7523	-49.2313	741.5574	-1.2705	-0.40287	-0.66753	-0.2681	1.4973	0.13935	-0.0592	0.0182	-0.0073	-0.0462	0.0165	0.9585
14.4949	32.2022	738.2446	66.0267	-249.1892	-50.1898	747.0568	-1.3167	-2.1172	-0.86422	-1.0029	1.7567	-2.1471	-0.0592	0.0182	-0.0073	-0.0462	0.0165	0.9585
14.506	35.1482	747.9675	68.3773	-250.8378	-51.0941	752.576	-1.1896	-4.21	-1.0134	-1.885	1.8849	-4.9332	-0.0592	0.0182	-0.0073	-0.0462	0.0165	0.9585
14.5171	38.3214	757.7476	70.74	-252.6457	-51.899	757.8873	-0.78965	-6.4264	-1.0255	-2.8022	1.7148	-7.8816	-0.0592	0.0182	-0.0073	-0.0462	0.0165	0.9585
14.5283	41.6941	767.2233	73.041	-254.5051	-52.5459	762.6624	0.060495	-8.2872	-0.79589	-3.5424	1.0302	-10.392	-0.0592	0.0182	-0.0073	-0.0462	0.0165	0.9585
14.5394	45.2636	775.8602	75.1898	-256.2351	-52.9618	766.3967	1.5072	-8.9576	-0.17822	-3.7487	-0.42715	-11.3851	-0.0592	0.0182	-0.0073	-0.0462	0.0165	0.9585
14.5506	49.0262	782.9805	77.0982	-257.6033	-53.0765	768.4676	3.7279	-7.2582	0.99333	-2.913	-2.9367	-9.3347	-0.0592	0.0182	-0.0073	-0.0462	0.0165	0.9585
14.5617	53.0332	787.877	78.6765	-258.3687	-52.805	768.2198	6.7846	-1.5724	2.8891	-0.35178	-6.736	-2.1475	-0.0592	0.0182	-0.0073	-0.0462	0.0165	0.9585
14.5729	57.2889	789.87	79.8316	-258.3019	-52.0722	765.071	10.6498	9.9979	5.6268	4.7416	-11.9394	12.6468	-0.0592	0.0182	-0.0073	-0.0462	0.0165	0.9585
14.584	61.7919	788.3022	80.4312	-257.1863	-50.7728	758.4729	15.0054	29.4669	9.1937	13.211	-18.3721	37.7118	-0.0592	0.0182	-0.0073	-0.0462	0.0165	0.9585
14.5951	66.4426	782.4166	80.2957	-254.7793	-48.7875	747.8293	19.1512	58.489	13.3575	25.7395	-25.4032	75.2323	-0.0592	0.0182	-0.0073	-0.0462	0.0165	0.9585
14.6063	71.1006	771.303	79.2164	-250.7905	-45.9907	732.4123	21.7567	97.7332	17.523	42.5656	-31.6917	126.1067	-0.0592	0.0182	-0.0073	-0.0462	0.0165	0.9585
14.6174	75.4986	753.9319	76.9633	-244.8886	-42.2794	711.4054	20.845	146.0734	20.8172	63.1434	-35.2692	188.918	-0.0592	0.0182	-0.0073	-0.0462	0.0165	0.9585
14.6286	79.2729	729.1811	73.3425	-236.7133	-37.6185	683.8986	14.8865	200.2709	21.9771	86.0201	-33.9286	259.5466	-0.0592	0.0182	-0.0073	-0.0462	0.0165	0.9585
14.6397	81.9393	696.0546	68.2527	-225.9361	-32.0918	649.1214	4.3975	255.7832	20.0774	109.2205	-26.7944	332.1187	-0.0592	0.0182	-0.0073	-0.0462	0.0165	0.9585
14.6509	82.9879	653.8647	61.7515	-212.3177	-25.9321	606.563	-8.7517	308.0498	15.2933	130.8579	-14.8978	400.4772	-0.0592	0.0182	-0.0073	-0.0462	0.0165	0.9585
14.662	81.9293	602.5356	54.0969	-195.8018	-19.5332	556.2753	-22.7098	355.0147	8.3158	150.1146	0.007908	461.6693	-0.0592	0.0182	-0.0073	-0.0462	0.0165	0.9585
14.6731	78.4249	542.8423	45.7221	-176.5938	-13.3819	499.0509	-36.2475	398.0308	0.47089	167.5827	15.7969	517.2	-0.0592	0.0182	-0.0073	-0.0462	0.0165	0.9585
14.6843	72.3417	476.4883	37.2089	-155.1916	-8.0158	436.4782	-48.6293	439.5548	-7.4731	184.3144	31.1814	570.1721	-0.0592	0.0182	-0.0073	-0.0462	0.0165	0.9585
14.6954	63.8376	405.9814	29.1656	-132.3657	-3.899	370.8084	-59.3455	481.6274	-14.9131	201.1854	45.2048	623.2197	-0.0592	0.0182	-0.0073	-0.0462	0.0165	0.9585
